<?xml version="1.0" standalone="no"?>
<!DOCTYPE svg PUBLIC "-//W3C//DTD SVG 20010904//EN"
 "http://www.w3.org/TR/2001/REC-SVG-20010904/DTD/svg10.dtd">
<?xml-stylesheet type="text/css" href="/assets/css/002.css"?>
<svg version="1.0" xmlns="http://www.w3.org/2000/svg"
 width="1502.000000pt" height="845.000000pt" viewBox="0 0 1502.000000 845.000000"
 preserveAspectRatio="xMidYMid meet">

<g transform="translate(0.000000,845.000000) scale(0.100000,-0.100000)"
fill="##161a1b" stroke="none">
<path d="M5752 6825 c-145 -41 -224 -118 -267 -260 -16 -51 -86 -476 -196
-1180 -185 -1191 -185 -1189 -140 -1290 59 -134 210 -207 353 -170 109 28 176
90 218 203 14 36 60 306 131 761 60 389 112 718 116 733 7 22 60 -89 348 -730
187 -416 372 -822 411 -902 113 -228 191 -299 364 -336 134 -28 237 2 319 92
56 61 85 129 107 244 44 237 344 2209 344 2263 0 103 -23 161 -88 227 -65 64
-129 90 -221 90 -160 0 -266 -104 -305 -295 -7 -38 -62 -384 -122 -767 -59
-384 -110 -696 -112 -693 -5 5 -623 1353 -733 1600 -103 229 -129 274 -190
329 -87 79 -226 112 -337 81z"/>
<path d="M9757 6223 c-88 -30 -163 -113 -203 -227 -14 -38 -368 -2085 -394
-2276 -31 -225 39 -356 226 -421 48 -16 673 -129 999 -180 126 -20 393 -17
495 5 239 51 416 152 596 338 225 234 357 540 431 1003 27 170 24 495 -6 635
-61 285 -179 503 -367 679 -211 197 -385 257 -1099 380 -501 86 -586 94 -678
64z m668 -648 c473 -82 625 -161 730 -379 24 -50 48 -116 55 -146 51 -248 -13
-697 -136 -956 -96 -204 -251 -349 -411 -384 -96 -22 -226 -13 -507 34 -148
26 -271 48 -273 50 -3 3 273 1636 298 1764 8 38 15 52 27 52 10 0 107 -16 217
-35z"/>
<path d="M4398 4156 c-65 -17 -149 -76 -196 -135 -94 -118 -1368 -2011 -1391
-2066 -36 -85 -36 -208 -1 -280 33 -67 102 -135 175 -170 51 -25 72 -30 140
-30 68 0 89 4 139 29 32 16 81 52 110 80 56 57 1359 1970 1409 2069 40 79 54
169 38 240 -27 121 -118 219 -240 257 -72 23 -116 24 -183 6z"/>
<path d="M7675 3119 c-345 -37 -704 -164 -990 -350 -161 -104 -210 -176 -209
-309 0 -57 5 -88 23 -127 59 -133 228 -212 362 -170 26 8 95 45 155 82 344
216 722 302 1107 250 389 -51 767 -255 1007 -542 165 -196 196 -217 330 -217
73 -1 92 3 135 26 111 59 169 154 170 278 0 97 -26 152 -133 281 -348 417
-816 683 -1367 780 -140 24 -446 34 -590 18z"/>
</g>
</svg>
