<?xml version="1.0" standalone="no"?>
<!DOCTYPE svg PUBLIC "-//W3C//DTD SVG 20010904//EN"
 "http://www.w3.org/TR/2001/REC-SVG-20010904/DTD/svg10.dtd">
<?xml-stylesheet type="text/css" href="/assets/css/003.css"?>
<svg version="1.0" xmlns="http://www.w3.org/2000/svg"
 width="1000.000000pt" height="562.000000pt" viewBox="0 0 1000.000000 562.000000"
 preserveAspectRatio="xMidYMid meet">

<g transform="translate(0.000000,562.000000) scale(0.100000,-0.100000)"
fill="#161a1b" stroke="none">
<path d="M3752 5375 c-145 -41 -224 -118 -267 -260 -16 -51 -86 -476 -196
-1180 -185 -1191 -185 -1189 -140 -1290 59 -134 210 -207 353 -170 109 28 176
90 218 203 14 36 60 306 131 761 60 389 112 718 116 733 7 22 60 -89 348 -730
187 -416 372 -822 411 -902 113 -228 191 -299 364 -336 134 -28 237 2 319 92
56 61 85 129 107 244 44 237 344 2209 344 2263 0 103 -23 161 -88 227 -65 64
-129 90 -221 90 -160 0 -266 -104 -305 -295 -7 -38 -62 -384 -122 -767 -59
-384 -110 -696 -112 -693 -5 5 -623 1353 -733 1600 -103 229 -129 274 -190
329 -87 79 -226 112 -337 81z"/>
<path d="M7757 4773 c-88 -30 -163 -113 -203 -227 -14 -38 -368 -2085 -394
-2276 -31 -225 39 -356 226 -421 48 -16 673 -129 999 -180 126 -20 393 -17
495 5 239 51 416 152 596 338 225 234 357 540 431 1003 27 170 24 495 -6 635
-61 285 -179 503 -367 679 -211 197 -385 257 -1099 380 -501 86 -586 94 -678
64z m668 -648 c473 -82 625 -161 730 -379 24 -50 48 -116 55 -146 51 -248 -13
-697 -136 -956 -96 -204 -251 -349 -411 -384 -96 -22 -226 -13 -507 34 -148
26 -271 48 -273 50 -3 3 273 1636 298 1764 8 38 15 52 27 52 10 0 107 -16 217
-35z"/>
<path d="M303 3943 c-188 -64 -289 -269 -221 -450 16 -44 38 -74 87 -123 60
-59 159 -119 1106 -667 651 -376 1064 -609 1104 -623 143 -48 276 -17 371 87
154 169 112 415 -95 545 -170 107 -2073 1200 -2119 1217 -82 31 -168 35 -233
14z"/>
<path d="M4695 1667 c-128 -43 -209 -141 -222 -271 -12 -116 51 -225 243 -426
678 -706 1741 -891 2616 -454 335 167 432 265 432 434 1 122 -61 223 -167 274
-118 56 -209 44 -348 -45 -229 -148 -438 -227 -699 -265 -146 -21 -389 -14
-532 15 -355 72 -677 258 -901 520 -132 155 -156 178 -210 201 -63 27 -157 35
-212 17z"/>
</g>
</svg>
