<?xml version="1.0" standalone="no"?>
<!DOCTYPE svg PUBLIC "-//W3C//DTD SVG 20010904//EN"
 "http://www.w3.org/TR/2001/REC-SVG-20010904/DTD/svg10.dtd">
 <?xml-stylesheet type="text/css" href="/assets/css/001.css"?>
<svg version="1.0" xmlns="http://www.w3.org/2000/svg"
 width="1000.000000pt" height="562.000000pt" viewBox="0 0 1000.000000 562.000000"
 preserveAspectRatio="xMidYMid meet">

<g transform="translate(0.000000,562.000000) scale(0.100000,-0.100000)"
fill="#ffb000" stroke="none">
<path d="M2210 3273 c-36 -2 -75 -5 -87 -8 l-23 -5 0 -454 0 -453 61 -7 c103
-10 271 -7 324 8 159 42 249 146 280 322 18 99 18 188 1 284 -33 183 -130 281
-306 309 -62 10 -105 11 -250 4z m265 -211 c17 -10 41 -38 55 -67 23 -46 25
-61 25 -185 0 -124 -2 -139 -25 -184 -35 -71 -66 -90 -150 -94 l-70 -4 0 275
c0 211 3 277 13 281 22 10 121 -4 152 -22z"/>
<path d="M6714 3271 c-11 -5 -33 -24 -48 -42 -24 -28 -27 -40 -23 -73 10 -72
75 -110 162 -95 98 18 129 142 48 194 -29 19 -110 28 -139 16z"/>
<path d="M5982 3178 l3 -83 43 -3 c40 -3 42 -4 42 -36 l0 -33 -74 5 c-116 7
-203 -23 -277 -97 -49 -49 -61 -69 -80 -131 -39 -130 -11 -298 64 -378 36 -38
98 -70 163 -82 51 -10 71 -9 124 4 35 9 78 28 96 41 l32 25 7 -30 7 -30 107 0
c70 0 111 4 119 12 16 16 16 140 0 156 -7 7 -27 12 -45 12 l-33 0 0 349 c0
192 -3 356 -6 365 -5 14 -28 16 -150 16 l-145 0 3 -82z m72 -334 c14 -5 16
-27 16 -143 0 -133 -1 -138 -25 -161 -29 -28 -108 -37 -145 -18 -47 25 -70 74
-70 151 0 78 23 132 68 160 27 16 124 23 156 11z"/>
<path d="M4250 3176 l-75 -23 -3 -71 -3 -71 -57 -3 -57 -3 0 -80 0 -80 56 -3
57 -3 5 -142 c5 -158 19 -210 68 -270 84 -102 258 -121 414 -47 33 16 73 42
88 58 l29 30 -41 60 c-46 69 -62 78 -86 52 -52 -57 -178 -79 -228 -40 -36 28
-47 76 -47 197 l0 103 163 2 162 3 0 80 0 80 -162 3 -162 2 -3 93 c-4 109 -2
108 -118 73z"/>
<path d="M3505 3016 c-93 -29 -140 -70 -160 -141 -37 -127 33 -208 227 -260
140 -39 168 -51 168 -75 0 -55 -134 -47 -257 16 -39 20 -76 34 -81 30 -5 -3
-26 -33 -46 -66 -37 -60 -37 -62 -20 -81 33 -37 156 -88 238 -100 91 -12 196
0 255 31 118 60 153 210 69 297 -42 45 -84 66 -183 92 -152 42 -175 51 -175
72 0 44 152 39 247 -9 l62 -32 41 66 c23 36 39 71 37 78 -7 19 -98 64 -162 81
-70 18 -204 19 -260 1z"/>
<path d="M7435 3017 c-166 -55 -254 -211 -224 -397 28 -182 146 -281 334 -283
141 -2 243 45 303 141 40 62 54 120 54 212 -1 141 -72 261 -185 311 -64 28
-218 37 -282 16z m201 -184 c42 -27 59 -70 59 -153 0 -57 -5 -83 -18 -103 -62
-95 -201 -86 -247 16 -34 74 -17 194 33 235 41 34 125 37 173 5z"/>
<path d="M4824 2997 c-3 -8 -4 -45 -2 -83 l3 -69 31 -3 31 -3 5 -167 c5 -184
15 -222 70 -279 74 -76 237 -77 331 -2 21 17 40 29 41 28 2 -2 8 -17 13 -34
l10 -30 102 -3 c68 -2 108 1 117 9 18 15 19 140 2 157 -7 7 -29 12 -50 12
l-38 0 -2 238 -3 237 -130 0 -130 0 0 -80 0 -80 33 -3 32 -3 0 -127 c0 -105
-3 -131 -18 -148 -25 -31 -55 -44 -101 -44 -70 0 -75 17 -81 270 l-5 215 -128
3 c-101 2 -128 0 -133 -11z"/>
<path d="M6454 2997 c-3 -8 -4 -45 -2 -83 l3 -69 108 -3 107 -3 0 -154 0 -155
-98 0 c-63 0 -102 -4 -110 -12 -17 -17 -16 -142 2 -157 9 -8 103 -11 322 -9
l309 3 3 79 c2 57 -1 82 -10 87 -7 5 -59 9 -115 9 l-103 0 -2 238 -3 237 -203
3 c-164 2 -203 0 -208 -11z"/>
</g>
</svg>
