<?xml version="1.0" standalone="no"?>
<!DOCTYPE svg PUBLIC "-//W3C//DTD SVG 20010904//EN"
 "http://www.w3.org/TR/2001/REC-SVG-20010904/DTD/svg10.dtd">
<?xml-stylesheet type="text/css" href="/assets/css/001.css"?>
<svg version="1.0" xmlns="http://www.w3.org/2000/svg"
 width="1502.000000pt" height="845.000000pt" viewBox="0 0 1502.000000 845.000000"
 preserveAspectRatio="xMidYMid meet">

<g transform="translate(0.000000,845.000000) scale(0.100000,-0.100000)"
fill="#0d1011" stroke="none">
<path d="M5702 7715 c-145 -41 -224 -118 -267 -260 -16 -51 -86 -476 -196
-1180 -185 -1191 -185 -1189 -140 -1290 59 -134 210 -207 353 -170 109 28 176
90 218 203 14 36 60 306 131 761 60 389 112 718 116 733 7 22 60 -89 348 -730
187 -416 372 -822 411 -902 113 -228 191 -299 364 -336 134 -28 237 2 319 92
56 61 85 129 107 244 44 237 344 2209 344 2263 0 103 -23 161 -88 227 -65 64
-129 90 -221 90 -160 0 -266 -104 -305 -295 -7 -38 -62 -384 -122 -767 -59
-384 -110 -696 -112 -693 -5 5 -623 1353 -733 1600 -103 229 -129 274 -190
329 -87 79 -226 112 -337 81z"/>
<path d="M3305 7243 c-119 -43 -189 -106 -226 -203 -26 -67 -25 -173 1 -250
31 -91 1044 -2177 1088 -2240 77 -109 187 -166 305 -158 124 8 249 93 299 203
30 65 31 185 4 265 -16 48 -849 1777 -1017 2112 -100 199 -192 276 -339 285
-45 2 -80 -2 -115 -14z"/>
<path d="M9707 7113 c-88 -30 -163 -113 -203 -227 -14 -38 -368 -2085 -394
-2276 -31 -225 39 -356 226 -421 48 -16 673 -129 999 -180 126 -20 393 -17
495 5 239 51 416 152 596 338 225 234 357 540 431 1003 27 170 24 495 -6 635
-61 285 -179 503 -367 679 -211 197 -385 257 -1099 380 -501 86 -586 94 -678
64z m668 -648 c473 -82 625 -161 730 -379 24 -50 48 -116 55 -146 51 -248 -13
-697 -136 -956 -96 -204 -251 -349 -411 -384 -96 -22 -226 -13 -507 34 -148
26 -271 48 -273 50 -3 3 273 1636 298 1764 8 38 15 52 27 52 10 0 107 -16 217
-35z"/>
<path d="M6645 4007 c-128 -43 -209 -141 -222 -271 -12 -116 51 -225 243 -426
678 -706 1741 -891 2616 -454 335 167 432 265 432 434 1 122 -61 223 -167 274
-118 56 -209 44 -348 -45 -229 -148 -438 -227 -699 -265 -146 -21 -389 -14
-532 15 -355 72 -677 258 -901 520 -132 155 -156 178 -210 201 -63 27 -157 35
-212 17z"/>
<path d="M9196 1885 c-18 -18 -31 -94 -21 -127 13 -40 26 -48 80 -48 68 0 80
14 80 97 0 52 -4 67 -19 79 -26 19 -100 18 -120 -1z"/>
<path d="M5170 1626 c-16 -9 -30 -11 -42 -5 -9 5 -46 9 -83 9 -57 0 -69 -3
-90 -25 -14 -13 -25 -30 -25 -37 0 -25 29 -55 60 -61 l30 -6 0 -175 0 -174
-34 -6 c-36 -7 -46 -21 -46 -65 0 -46 14 -51 145 -51 133 0 145 5 145 56 0 39
-22 64 -56 64 l-24 0 0 160 c0 148 2 162 21 181 28 28 79 23 96 -11 9 -17 13
-83 13 -218 0 -114 4 -201 10 -213 9 -16 22 -19 85 -19 86 0 108 14 103 64 -2
24 -10 34 -35 46 l-33 15 0 145 c0 127 3 149 20 178 15 24 27 32 49 32 52 0
56 -14 59 -239 5 -246 2 -241 102 -241 73 0 100 16 100 58 0 25 -33 62 -54 62
-11 0 -15 35 -18 178 -5 202 -19 254 -80 292 -45 29 -149 25 -194 -7 l-31 -22
-21 22 c-27 27 -133 35 -172 13z"/>
<path d="M5977 1626 c-27 -7 -61 -22 -75 -33 -51 -38 -34 -123 23 -123 13 0
53 11 89 25 73 28 107 31 155 14 27 -10 61 -51 61 -76 0 -4 -47 -6 -104 -5
-137 5 -204 -13 -262 -71 -63 -64 -80 -146 -45 -222 55 -121 212 -158 358 -85
l56 29 19 -25 c18 -22 27 -24 102 -24 91 0 106 8 106 55 0 43 -12 56 -59 62
l-41 6 0 155 c0 93 -5 171 -12 196 -16 52 -72 108 -124 124 -53 15 -185 14
-247 -2z m244 -322 c17 -10 9 -70 -11 -92 -49 -52 -153 -82 -215 -62 -91 30
-66 134 39 159 40 10 169 6 187 -5z"/>
<path d="M7548 1627 c-89 -25 -125 -65 -106 -120 13 -37 50 -45 108 -23 75 29
125 39 164 32 40 -8 72 -36 78 -69 4 -22 3 -22 -98 -19 -131 5 -198 -13 -260
-70 -126 -116 -58 -318 115 -344 56 -9 139 8 205 40 l49 25 19 -25 c18 -22 27
-24 98 -24 88 0 110 12 110 60 0 34 -31 60 -71 60 l-27 0 -4 173 c-3 173 -3
174 -33 222 -44 70 -87 89 -205 92 -55 2 -115 -3 -142 -10z m243 -323 c16 -10
9 -61 -12 -88 -50 -63 -182 -92 -242 -53 -22 14 -27 25 -27 56 0 47 22 69 87
87 45 13 173 12 194 -2z"/>
<path d="M10010 1633 c-8 -3 -32 -14 -53 -24 -37 -19 -37 -19 -57 1 -15 15
-33 20 -79 20 -33 0 -71 -4 -85 -10 -55 -20 -38 -101 23 -113 l31 -6 0 -176 0
-175 -25 0 c-29 0 -65 -32 -65 -58 0 -10 7 -28 16 -40 14 -21 23 -22 134 -22
131 0 150 7 150 60 0 31 -30 60 -62 60 -16 0 -18 13 -18 140 l0 140 33 37 c29
31 41 37 90 41 52 4 58 2 87 -26 l30 -30 0 -151 c0 -138 -2 -151 -18 -151 -32
0 -62 -29 -62 -60 0 -52 19 -60 149 -60 102 0 120 3 134 18 35 38 5 102 -48
102 l-25 0 0 159 c0 91 -5 172 -11 192 -30 89 -102 139 -199 138 -30 0 -62 -3
-70 -6z"/>
<path d="M10684 1619 c-141 -54 -221 -200 -193 -353 13 -75 37 -121 86 -168
106 -102 298 -114 480 -29 72 34 94 65 75 106 -19 41 -55 42 -146 4 -109 -45
-215 -52 -275 -18 -27 15 -48 37 -61 64 -11 23 -20 44 -20 48 0 3 108 7 241 9
281 4 274 1 266 99 -9 104 -84 201 -184 239 -73 27 -198 27 -269 -1z m226
-119 c26 -13 47 -34 60 -60 l20 -40 -175 0 c-106 0 -175 4 -175 10 0 17 64 83
95 96 46 20 129 17 175 -6z"/>
<path d="M6770 1611 c-72 -25 -150 -107 -171 -177 -42 -146 14 -290 138 -351
76 -37 184 -39 251 -5 l42 22 0 -46 c0 -58 -23 -108 -57 -123 -14 -7 -65 -11
-117 -10 -107 1 -120 -3 -136 -42 -27 -65 56 -108 185 -95 121 12 198 55 234
130 20 39 21 61 21 314 l0 273 31 6 c39 7 62 42 53 78 -8 34 -38 45 -119 45
-58 0 -66 -3 -81 -25 l-16 -24 -41 21 c-59 30 -148 33 -217 9z m194 -134 c100
-57 102 -198 4 -270 -36 -27 -131 -29 -173 -3 -50 29 -69 64 -73 131 -3 50 0
65 20 94 48 70 146 92 222 48z"/>
<path d="M8250 1619 c-36 -15 -40 -26 -40 -116 0 -92 11 -113 60 -113 35 0 60
32 60 77 l0 33 112 0 113 0 -177 -177 c-194 -194 -207 -216 -168 -266 l21 -27
235 0 c284 0 274 -4 274 118 0 92 -12 115 -60 115 -41 0 -60 -24 -60 -75 l0
-38 -122 0 -121 0 176 173 c179 175 196 198 183 253 -12 46 -53 54 -268 53
-106 0 -204 -5 -218 -10z"/>
<path d="M9054 1620 c-26 -10 -38 -53 -24 -81 15 -26 50 -39 111 -39 l49 0 0
-175 0 -175 -98 0 c-83 0 -102 -3 -115 -18 -24 -26 -22 -79 2 -92 12 -6 123
-10 290 -10 l271 0 15 24 c19 29 11 72 -15 86 -10 6 -64 10 -119 10 l-101 0 0
230 c0 216 -1 230 -19 240 -23 12 -217 12 -247 0z"/>
</g>
</svg>
