<?xml version="1.0" standalone="no"?>
<?xml-stylesheet type="text/css" href="/assets/css/001.css"?>
<!DOCTYPE svg PUBLIC "-//W3C//DTD SVG 20010904//EN"
 "http://www.w3.org/TR/2001/REC-SVG-20010904/DTD/svg10.dtd">
<svg version="1.0" xmlns="http://www.w3.org/2000/svg"
 width="1280.000000pt" height="1280.000000pt" viewBox="0 0 1280.000000 1280.000000"
 preserveAspectRatio="xMidYMid meet">
<metadata>
Created by potrace 1.15, written by Peter Selinger 2001-2017
</metadata>
<g transform="translate(0.000000,1280.000000) scale(0.100000,-0.100000)"
fill="#000000" stroke="none">
<path d="M6495 10895 c-137 -7 -367 -18 -510 -25 -143 -6 -335 -15 -427 -21
-92 -5 -279 -9 -415 -10 -136 0 -268 -4 -293 -8 -216 -40 -347 -71 -545 -129
-190 -55 -251 -71 -400 -101 -206 -42 -202 -41 -370 -110 -158 -65 -196 -86
-285 -160 -31 -25 -73 -59 -94 -76 -22 -16 -57 -45 -80 -64 -23 -19 -101 -79
-173 -133 -147 -111 -181 -145 -219 -221 -18 -34 -73 -98 -161 -187 -114 -115
-147 -156 -222 -275 -207 -330 -291 -465 -309 -496 -11 -19 -45 -76 -76 -126
-66 -109 -78 -135 -106 -228 -27 -92 -150 -521 -160 -560 -33 -121 -44 -159
-66 -230 -14 -44 -55 -139 -91 -211 l-65 -131 -34 -234 c-31 -207 -35 -257
-34 -434 0 -183 2 -212 30 -345 16 -80 46 -255 65 -390 20 -135 52 -342 71
-460 35 -207 39 -222 109 -400 40 -102 102 -273 138 -380 50 -151 87 -241 167
-400 l102 -205 143 -145 c126 -129 157 -168 278 -350 130 -197 142 -212 314
-382 118 -117 222 -210 311 -275 272 -203 772 -417 1102 -473 162 -27 157 -25
180 -70 23 -45 57 -71 120 -90 25 -8 101 -36 170 -63 185 -72 240 -86 405 -99
l150 -12 72 -43 c40 -23 90 -51 112 -63 52 -26 224 -60 306 -60 42 0 84 -8
129 -25 37 -14 83 -25 104 -25 20 0 66 -10 102 -21 52 -16 100 -21 242 -25
120 -3 207 -10 271 -24 260 -53 350 -64 512 -64 180 0 378 26 530 69 186 53
241 67 374 90 75 13 152 29 171 35 99 32 199 53 412 90 503 86 440 69 637 167
295 147 514 285 616 388 78 79 158 196 180 265 13 42 33 71 85 125 37 39 101
120 143 180 132 191 280 377 383 480 96 97 100 103 129 189 21 63 38 95 56
109 40 29 54 73 93 297 20 113 48 248 62 300 13 52 35 167 49 255 32 217 37
245 79 435 25 113 43 231 56 374 24 251 25 331 5 496 -8 69 -19 242 -24 385
-8 221 -13 270 -31 325 -39 119 -60 214 -80 351 -11 75 -27 163 -36 195 -17
62 -17 63 -8 135 5 43 3 50 -28 85 -19 22 -41 55 -50 74 -41 91 -76 182 -97
250 -78 260 -180 483 -284 624 -33 44 -106 128 -162 186 -56 58 -129 141 -162
185 -71 93 -184 205 -208 205 -18 0 -170 152 -214 215 -16 22 -68 110 -116
195 -120 212 -114 205 -292 314 -327 198 -703 405 -828 454 -27 11 -80 34
-118 51 -37 17 -70 31 -73 31 -11 0 -105 44 -319 150 -165 82 -270 126 -420
177 l-200 68 -245 3 -245 3 -30 28 c-40 38 -66 40 -360 26z m225 -182 l55 -27
295 -6 295 -5 180 -62 c127 -43 239 -91 380 -162 187 -93 304 -147 533 -242
83 -34 223 -106 337 -173 22 -12 103 -59 180 -103 77 -44 202 -118 279 -164
l139 -85 74 -130 c41 -71 79 -150 84 -176 8 -38 26 -65 88 -135 42 -48 88
-101 102 -117 13 -16 44 -48 69 -70 92 -84 138 -137 165 -191 15 -31 48 -80
74 -109 25 -30 52 -71 60 -92 7 -22 38 -84 69 -139 95 -168 173 -374 271 -720
18 -60 36 -123 41 -140 5 -16 18 -68 30 -115 12 -46 31 -103 42 -125 15 -30
22 -71 28 -160 4 -66 17 -156 28 -200 55 -213 64 -293 58 -513 -4 -114 -10
-337 -14 -497 l-8 -290 -68 -325 c-86 -417 -76 -372 -131 -615 -26 -115 -51
-229 -56 -252 -5 -24 -17 -64 -28 -90 -11 -27 -50 -129 -87 -228 -37 -99 -77
-201 -90 -227 -21 -42 -152 -222 -365 -503 -38 -49 -119 -153 -182 -230 -111
-137 -117 -143 -302 -278 -227 -165 -648 -448 -690 -465 -16 -6 -149 -41 -295
-77 -146 -37 -280 -71 -297 -76 -18 -5 -48 -13 -65 -18 -18 -5 -97 -27 -176
-50 -116 -33 -158 -41 -227 -41 -73 0 -86 3 -98 21 -22 30 -64 38 -122 22 -27
-8 -74 -20 -103 -28 -43 -12 -146 -15 -546 -15 -505 0 -590 5 -761 45 -33 7
-98 17 -145 20 -47 4 -103 10 -125 15 -22 4 -71 13 -110 20 -259 43 -350 63
-765 168 -401 101 -400 101 -471 102 -104 0 -244 32 -449 100 -159 53 -249 91
-400 167 -259 130 -401 236 -630 470 -150 152 -177 186 -295 363 -112 169
-147 213 -265 332 l-135 137 -97 193 c-72 145 -113 242 -163 393 -37 110 -88
254 -115 320 -94 234 -85 200 -150 600 -6 33 -24 157 -41 275 -17 118 -46 293
-65 389 -47 242 -47 385 0 709 l34 233 70 147 c63 133 107 261 172 507 5 17
29 102 55 190 25 88 55 193 66 233 31 116 50 159 128 287 41 66 81 134 91 150
9 17 50 82 90 145 40 63 85 135 100 160 125 208 171 269 302 401 102 102 144
153 172 205 32 59 49 78 124 134 48 35 147 112 221 170 201 158 213 167 256
198 22 16 112 56 200 90 125 48 199 70 335 97 96 19 213 47 260 61 85 25 149
43 290 82 41 11 143 34 225 51 140 27 170 30 435 35 157 2 389 10 515 16 969
49 962 49 1035 13z m3000 -7904 c-24 -32 -139 -123 -148 -115 -2 3 18 27 44
53 99 98 152 130 104 62z"/>
<path d="M5930 9966 c-32 -23 -56 -26 -325 -50 -222 -20 -352 -26 -555 -26
-146 0 -281 -5 -300 -10 -21 -6 -62 -36 -101 -72 l-66 -63 -149 -39 c-82 -21
-180 -47 -219 -58 -96 -25 -296 -158 -344 -227 -46 -69 -89 -106 -141 -121
-25 -8 -61 -21 -80 -31 -50 -24 -167 -151 -239 -257 -53 -79 -71 -98 -158
-158 -54 -37 -103 -72 -108 -78 -6 -6 -43 -58 -81 -116 -47 -71 -79 -133 -98
-190 -16 -47 -35 -97 -42 -112 -16 -32 -211 -325 -258 -388 -23 -31 -54 -104
-100 -239 -36 -106 -66 -195 -66 -197 0 -2 -26 -33 -59 -68 -67 -75 -71 -87
-71 -256 0 -101 -4 -126 -30 -205 -16 -50 -30 -99 -30 -111 0 -12 11 -65 24
-120 25 -100 25 -114 1 -114 -7 0 -27 -12 -44 -26 -53 -44 -36 -107 37 -142
40 -19 42 -27 26 -129 -5 -37 -2 -47 25 -81 17 -22 35 -51 40 -66 6 -14 60
-223 120 -464 110 -442 220 -800 282 -924 17 -33 48 -110 69 -170 49 -136 147
-300 202 -332 29 -18 103 -21 140 -7 13 5 96 82 185 170 89 89 169 161 177
161 9 0 32 15 52 32 20 18 92 67 160 108 68 41 206 140 306 220 101 80 243
188 316 240 240 170 490 344 600 415 107 70 201 143 342 264 41 35 86 73 100
85 14 12 125 102 248 200 136 109 233 193 247 217 l25 39 0 1419 0 1419 35
175 c19 96 35 204 35 239 0 58 3 67 30 93 29 28 38 63 24 99 -7 19 -105 76
-130 76 -11 0 -35 -11 -54 -24z m-285 -216 c-3 -5 -10 -10 -16 -10 -5 0 -9 5
-9 10 0 6 7 10 16 10 8 0 12 -4 9 -10z m5 -437 c96 -19 178 -40 182 -46 4 -7
8 -624 7 -1372 0 -1048 -2 -1365 -12 -1382 -7 -12 -95 -88 -197 -170 -102 -82
-271 -221 -376 -308 -130 -109 -271 -214 -441 -328 -138 -92 -282 -191 -321
-220 -39 -28 -129 -92 -199 -142 -107 -76 -171 -125 -274 -209 -146 -120 -377
-276 -408 -276 -6 0 -19 20 -30 45 -18 41 -118 192 -146 221 -6 7 -31 44 -54
83 l-43 70 21 30 c36 50 25 95 -31 128 -27 16 -38 34 -60 99 -15 43 -33 104
-39 134 -6 30 -33 103 -61 162 -30 66 -65 166 -91 265 l-42 158 0 410 c0 375
2 414 18 455 12 30 22 90 28 175 13 195 23 224 124 360 86 115 182 285 234
411 75 184 120 272 186 359 33 45 82 114 110 154 45 66 62 81 191 166 181 119
328 208 401 242 32 15 105 55 163 89 81 48 128 69 205 89 55 14 126 35 158 45
33 11 89 27 125 36 37 9 108 29 157 44 77 25 125 37 240 64 29 6 78 -1 275
-41z m-1547 -250 c9 -9 -12 -33 -29 -33 -17 0 -18 27 -1 33 18 8 23 8 30 0z
m-869 -1069 c-42 -76 -54 -92 -54 -72 0 9 5 20 10 23 6 3 10 15 10 26 0 10 3
19 8 19 4 0 16 19 27 42 12 24 21 35 23 26 2 -9 -9 -37 -24 -64z m-702 -1011
c27 -25 22 -43 -12 -43 -30 0 -37 11 -24 44 8 20 13 20 36 -1z m88 -625 c0
-33 -3 -38 -23 -38 -49 0 -60 36 -24 80 20 25 23 26 35 12 6 -9 12 -33 12 -54z
m385 -1378 c18 -20 18 -21 -1 -47 -29 -39 -42 -39 -60 1 -14 29 -15 38 -4 51
17 21 43 19 65 -5z"/>
<path d="M7152 9855 c-23 -28 -26 -55 -47 -375 -9 -124 -22 -310 -30 -415 -12
-148 -15 -395 -15 -1107 l0 -916 -32 -94 c-33 -93 -33 -94 -33 -290 l0 -197
33 -33 c21 -23 32 -44 32 -64 0 -64 45 -91 157 -92 61 -1 66 -3 199 -89 151
-97 127 -69 276 -318 65 -108 238 -343 285 -386 15 -15 105 -78 198 -139 94
-62 181 -122 194 -134 13 -11 83 -95 156 -186 74 -91 196 -226 272 -301 121
-119 149 -141 226 -179 85 -42 87 -44 87 -79 1 -82 67 -99 173 -46 92 46 133
108 202 308 20 60 68 170 105 245 65 130 72 152 139 424 l72 286 -3 594 -3
593 -33 120 c-134 489 -345 1008 -516 1265 -47 70 -82 138 -107 205 -44 121
-58 138 -324 402 -210 208 -331 302 -502 387 -40 20 -89 54 -112 79 -24 25
-71 58 -109 77 -37 18 -78 40 -92 49 -32 22 -128 61 -250 102 -52 17 -108 38
-125 47 -52 26 -188 124 -242 174 -28 26 -60 48 -71 48 -10 0 -31 14 -47 30
-37 39 -85 41 -113 5z m658 -866 c121 -29 132 -34 183 -78 42 -37 68 -51 123
-65 158 -41 161 -43 273 -151 94 -90 114 -104 171 -123 54 -18 77 -33 125 -83
33 -33 84 -74 113 -91 61 -35 124 -96 146 -141 15 -34 44 -63 87 -89 14 -9 31
-30 37 -47 7 -17 17 -44 23 -60 15 -40 91 -117 133 -135 42 -18 53 -38 150
-279 86 -214 192 -532 235 -704 l31 -122 0 -574 0 -573 -64 -256 c-59 -238
-69 -266 -134 -401 -39 -79 -85 -186 -102 -237 -37 -108 -69 -180 -80 -180 -5
0 -62 27 -127 59 -115 58 -122 64 -259 203 -78 79 -196 211 -263 295 -67 84
-136 164 -154 178 -17 14 -111 78 -207 143 l-175 117 -94 125 c-52 69 -142
204 -201 300 -81 134 -115 182 -148 205 -36 26 -41 34 -35 55 4 14 10 534 13
1155 6 1032 8 1136 24 1195 12 42 19 118 22 215 5 151 8 175 20 175 3 0 64
-14 134 -31z m-493 -1976 c-4 -17 -4 -17 -12 0 -4 9 -4 25 0 35 8 16 8 16 12
0 3 -10 3 -26 0 -35z"/>
<path d="M5836 5430 c-43 -38 -66 -86 -66 -138 0 -22 -6 -44 -12 -50 -36 -28
-93 -52 -126 -52 -49 0 -54 -5 -151 -127 -73 -93 -92 -110 -210 -188 -161
-108 -414 -347 -429 -405 -7 -31 -28 -49 -203 -169 -274 -189 -630 -438 -655
-459 -25 -21 -44 -54 -44 -77 0 -28 46 -65 81 -65 35 0 107 -19 125 -32 6 -5
14 -25 18 -46 8 -46 29 -62 137 -100 85 -30 158 -57 194 -72 11 -5 42 -16 69
-27 29 -10 73 -40 105 -70 30 -29 67 -57 81 -62 64 -25 212 -43 415 -51 215
-8 223 -9 330 -44 133 -44 172 -45 301 -12 54 14 126 30 159 36 62 10 105 42
105 78 0 9 -15 85 -32 167 l-33 150 1 555 c0 305 1 580 3 610 1 30 -1 186 -4
345 -6 276 -8 291 -28 313 -31 33 -87 30 -131 -8z m8 -1342 c2 -288 7 -543 11
-568 l7 -45 -94 6 c-84 5 -156 21 -183 40 -11 8 -133 45 -195 59 -84 19 -195
52 -220 65 -15 8 -37 30 -51 50 -21 32 -108 85 -138 85 -17 0 -81 33 -81 42 0
4 17 18 38 31 161 102 208 130 270 160 94 46 126 70 153 115 32 54 77 100 135
137 33 21 74 64 114 117 71 94 198 228 217 228 10 0 13 -115 17 -522z m-625
116 c-18 -19 -42 -34 -53 -34 -15 0 -9 10 29 48 56 54 78 42 24 -14z m-919
-344 c0 -5 -8 -10 -17 -10 -15 0 -16 2 -3 10 19 12 20 12 20 0z"/>
<path d="M6955 5377 l-29 -25 -2 -968 c-1 -533 1 -1004 4 -1046 5 -77 6 -79
52 -127 55 -58 66 -61 270 -67 74 -2 150 -4 169 -6 27 -1 39 5 60 30 14 17 46
39 71 48 25 10 69 32 98 51 29 18 54 33 56 33 2 0 52 30 112 66 60 36 162 92
226 125 150 75 155 78 206 118 24 18 66 42 95 52 29 10 57 27 62 36 6 10 35
43 66 73 31 30 66 71 78 90 26 43 29 125 5 158 -9 13 -87 76 -173 141 -87 65
-169 128 -182 139 -103 88 -267 213 -383 292 -77 53 -149 133 -251 281 -14 19
-76 70 -139 113 -126 85 -212 168 -246 236 -12 25 -41 63 -63 86 -23 23 -49
51 -57 63 -24 34 -71 38 -105 8z m599 -1074 c35 -27 83 -64 107 -84 24 -20 73
-52 108 -70 43 -23 75 -48 95 -77 28 -40 112 -92 148 -92 8 0 37 -22 65 -49
29 -27 68 -57 88 -67 20 -9 42 -29 50 -44 13 -25 12 -29 -13 -52 -44 -41 -80
-63 -232 -140 -80 -41 -206 -111 -282 -156 -75 -45 -143 -85 -151 -88 -14 -5
-16 28 -19 263 -3 228 -6 274 -20 306 -14 30 -18 70 -19 165 -3 158 0 232 6
232 3 0 34 -21 69 -47z m-455 -323 c4 -3 14 -17 23 -31 16 -25 15 -28 -3 -58
-30 -49 -39 -38 -38 47 0 42 3 70 6 62 3 -8 9 -17 12 -20z m20 -279 c12 -8 12
-13 -3 -35 -23 -36 -36 -32 -36 9 0 36 12 43 39 26z m1 -241 c0 -11 -6 -36
-14 -54 -8 -20 -10 -39 -5 -47 5 -8 9 -23 9 -33 0 -20 0 -20 -15 0 -9 12 -14
43 -15 87 0 60 2 67 20 67 13 0 20 -7 20 -20z"/>
</g>
</svg>
